# generated from PmQm by Jehee Lee
:FULLY-SPECIFIED
:DEGREES
146
root 16.8209 39.5493 3.54109 -67.9967 87.6433 -61.6937
RightUpLeg 12.6342 0.773253 1.14533
RightLeg 1.31666 6.75756 -1.35748
RightFoot -6.01227 -0.402447 6.50242
RightToes 4.07452e-010 -1.59028e-015 9.93923e-017
Spine -11.7833 -2.43015 -5.43172
Spine1 -4.31096 -2.49865 3.79494
HEad 11.9375 -8.26174 17.9257
LeftShoulder1 9.93923e-017 -0 1.22299e-017
LeftArm -117.036 -69.7153 101.714
LeftForeArm 9.2019 2.8369 9.55101
LeftHand -0.830057 1.66926 21.0202
RightShoulder 1.98785e-016 -4.96962e-017 1.55301e-017
RightArm -63.7684 71.029 -49.392
RightForeArm 8.68788 -2.68884 -9.0569
RightHand 5.46941 -19.5838 -29.3182
LeftUpLeg 8.95026 1.09488 1.59476
LeftLeg 8.99064 -3.68846 3.60669
LeftFoot -10.0686 0.0560569 -2.92875
LeftToes 1.53707e-010 -1.11459e-010 1.58109e-011
147
root 16.8324 39.5459 3.54483 -69.0926 87.6208 -62.8497
RightUpLeg 12.6041 0.777667 1.19787
RightLeg 1.32265 6.69427 -1.33611
RightFoot -6.03499 -0.401781 6.51396
RightToes 4.07452e-010 -1.59028e-015 9.93923e-017
Spine -11.8285 -2.47617 -5.91916
Spine1 -4.18259 -2.57836 4.47558
HEad 12.241 -8.77755 18.1435
LeftShoulder1 9.93923e-017 -0 1.22299e-017
LeftArm -111.919 -69.148 97.2883
LeftForeArm 7.06892 2.86517 9.52394
LeftHand -0.756751 1.76527 20.2307
RightShoulder 1.98785e-016 -4.96962e-017 1.55301e-017
RightArm -62.2113 69.5949 -49.1414
RightForeArm 6.79349 -3.11036 -8.87785
RightHand 5.16333 -19.1069 -28.3325
LeftUpLeg 8.84185 1.01169 1.60406
LeftLeg 9.09535 -3.64556 3.66725
LeftFoot -10.1319 0.0557013 -2.97924
LeftToes 1.53707e-010 -1.11459e-010 1.58109e-011
148
root 16.8438 39.5417 3.54626 -69.5228 87.6222 -63.3189
RightUpLeg 12.5775 0.752582 1.19425
RightLeg 1.34134 6.69316 -1.31701
RightFoot -6.07489 -0.398236 6.50078
RightToes 4.07452e-010 -1.59028e-015 9.93923e-017
Spine -11.7732 -2.58721 -6.32467
Spine1 -4.27012 -2.69846 4.97866
HEad 12.6995 -9.29386 18.6964
LeftShoulder1 9.93923e-017 -0 1.22299e-017
LeftArm -107.185 -68.6717 92.6724
LeftForeArm 5.72955 2.9037 9.57969
LeftHand -0.755111 1.73659 20.0166
RightShoulder 1.98785e-016 -4.96962e-017 1.55301e-017
RightArm -60.0049 68.1022 -47.773
RightForeArm 5.07615 -3.08448 -8.90558
RightHand 4.88817 -18.8294 -26.9368
LeftUpLeg 8.77685 0.904916 1.56691
LeftLeg 9.17258 -3.55604 3.72593
LeftFoot -10.1775 0.055517 -3.01938
LeftToes 1.53707e-010 -1.11459e-010 1.58109e-011
149
root 16.8552 39.5365 3.53957 -67.6967 87.5967 -61.4983
RightUpLeg 12.5446 0.699315 1.1281
RightLeg 1.4056 6.83773 -1.29374
RightFoot -6.13312 -0.393291 6.47466
RightToes 4.07452e-010 -1.59028e-015 9.93923e-017
Spine -11.597 -2.82144 -6.7918
Spine1 -4.51481 -2.94186 5.57423
HEad 13.093 -9.6505 19.3996
LeftShoulder1 9.93923e-017 -0 1.22299e-017
LeftArm -102.245 -68.284 87.442
LeftForeArm 4.73154 2.97641 9.76533
LeftHand -0.766531 1.74665 20.2985
RightShoulder 1.98785e-016 -4.96962e-017 1.55301e-017
RightArm -57.6916 66.6155 -45.5116
RightForeArm 3.53664 -2.59139 -9.2446
RightHand 4.6366 -18.7349 -25.1436
LeftUpLeg 8.78314 0.801723 1.48853
LeftLeg 9.21638 -3.36088 3.78719
LeftFoot -10.221 0.05485 -3.04089
LeftToes 1.53707e-010 -1.11459e-010 1.58109e-011
150
root 16.8652 39.5307 3.52292 -64.6654 87.5076 -58.4595
RightUpLeg 12.5204 0.644569 1.05951
RightLeg 1.45476 7.05422 -1.2574
RightFoot -6.17841 -0.391459 6.48046
RightToes 4.07452e-010 -1.59028e-015 9.93923e-017
Spine -11.3736 -3.07336 -7.39034
Spine1 -4.67874 -3.23905 6.46807
HEad 13.1882 -10.0354 19.8344
LeftShoulder1 9.93923e-017 -0 1.22299e-017
LeftArm -96.3571 -67.5779 81.4702
LeftForeArm 2.87269 3.05126 9.9244
LeftHand -0.747383 1.8599 20.6499
RightShoulder 1.98785e-016 -4.96962e-017 1.55301e-017
RightArm -55.4455 64.991 -43.1959
RightForeArm 2.36299 -1.73681 -9.78434
RightHand 4.49202 -18.7134 -24.002
LeftUpLeg 8.79947 0.708544 1.41309
LeftLeg 9.28291 -3.09994 3.86834
LeftFoot -10.2926 0.0531517 -3.0567
LeftToes 1.53707e-010 -1.11459e-010 1.58109e-011
151
root 16.8747 39.5253 3.50158 -62.5297 87.3806 -56.3208
RightUpLeg 12.5342 0.609299 1.035
RightLeg 1.42533 7.23355 -1.21315
RightFoot -6.18141 -0.395197 6.54072
RightToes 4.07452e-010 -1.59028e-015 9.93923e-017
Spine -11.247 -3.24075 -7.87757
Spine1 -4.5719 -3.477 7.30768
HEad 13.0884 -10.5893 19.9677
LeftShoulder1 9.93923e-017 -0 1.22299e-017
LeftArm -90.21 -66.347 75.6512
LeftForeArm -0.364294 3.10238 9.96814
LeftHand -0.668878 2.0751 20.4946
RightShoulder 1.98785e-016 -4.96962e-017 1.55301e-017
RightArm -53.0408 63.1171 -41.2178
RightForeArm 1.59065 -0.837229 -10.2634
RightHand 4.47203 -18.6538 -23.9982
LeftUpLeg 8.78272 0.620966 1.38002
LeftLeg 9.39454 -2.86763 3.95636
LeftFoot -10.3838 0.0509927 -3.08195
LeftToes 1.53707e-010 -1.11459e-010 1.58109e-011
152
root 16.8828 39.5215 3.47956 -60.6041 87.2503 -54.3889
RightUpLeg 12.5526 0.576536 1.00915
RightLeg 1.38495 7.42137 -1.17495
RightFoot -6.16093 -0.400846 6.61899
RightToes 4.07452e-010 -1.59028e-015 9.93923e-017
Spine -11.3079 -3.37196 -8.1456
Spine1 -4.19957 -3.67271 7.84598
HEad 13.1594 -11.0332 20.0367
LeftShoulder1 9.93923e-017 -0 1.22299e-017
LeftArm -84.7082 -64.8718 70.4717
LeftForeArm -4.05908 3.1431 9.99434
LeftHand -0.524453 2.3969 19.6514
RightShoulder 1.98785e-016 -4.96962e-017 1.55301e-017
RightArm -50.45 61.1942 -39.3053
RightForeArm 0.967264 -0.295664 -10.4691
RightHand 4.47928 -18.5102 -24.4505
LeftUpLeg 8.77013 0.521424 1.35125
LeftLeg 9.50202 -2.61618 4.02805
LeftFoot -10.4477 0.0501239 -3.11712
LeftToes 1.53707e-010 -1.11459e-010 1.58109e-011
153
root 16.8879 39.5175 3.45201 -57.0599 87.0996 -50.8207
RightUpLeg 12.5107 0.522399 0.914681
RightLeg 1.45648 7.72946 -1.15164
RightFoot -6.16971 -0.402437 6.66878
RightToes 4.07452e-010 -1.59028e-015 9.93923e-017
Spine -11.5311 -3.54792 -8.46772
Spine1 -3.66279 -3.91483 8.44555
HEad 13.5243 -11.0619 20.0309
LeftShoulder1 9.93923e-017 -0 1.22299e-017
LeftArm -79.4947 -63.2947 65.4522
LeftForeArm -7.32731 3.17032 10.0207
LeftHand -0.360643 2.76933 18.6085
RightShoulder 1.98785e-016 -4.96962e-017 1.55301e-017
RightArm -47.9289 59.5108 -37.2712
RightForeArm -0.0347479 -0.267936 -10.3574
RightHand 4.42067 -18.3448 -24.4122
LeftUpLeg 8.80316 0.399591 1.26273
LeftLeg 9.58174 -2.22331 4.08302
LeftFoot -10.4806 0.0500238 -3.145
LeftToes 1.53707e-010 -1.11459e-010 1.58109e-011
154
root 16.8939 39.5112 3.41154 -52.715 86.9102 -46.4407
RightUpLeg 12.4251 0.467123 0.779393
RightLeg 1.61547 8.10823 -1.14837
RightFoot -6.21951 -0.401671 6.69728
RightToes 4.07452e-010 -1.59028e-015 9.93923e-017
Spine -11.8287 -3.73029 -8.93386
Spine1 -3.04533 -4.18909 9.29521
HEad 13.8794 -10.8438 19.8091
LeftShoulder1 9.93923e-017 -0 1.22299e-017
LeftArm -73.9768 -61.4179 60.4403
LeftForeArm -10.5532 3.14771 9.91704
LeftHand -0.22972 3.09471 17.8452
RightShoulder 1.98785e-016 -4.96962e-017 1.55301e-017
RightArm -45.542 57.981 -35.3219
RightForeArm -1.68401 -0.546569 -10.0292
RightHand 4.28298 -18.2329 -23.5381
LeftUpLeg 8.85594 0.292822 1.14167
LeftLeg 9.67882 -1.75928 4.11735
LeftFoot -10.5398 0.0480905 -3.13529
LeftToes 1.53707e-010 -1.11459e-010 1.58109e-011
155
root 16.903 39.5037 3.35932 -50.0368 86.7354 -43.7445
RightUpLeg 12.3675 0.442779 0.682403
RightLeg 1.7139 8.38445 -1.16124
RightFoot -6.25635 -0.403148 6.74376
RightToes 4.07452e-010 -1.59028e-015 9.93923e-017
Spine -12.085 -3.82899 -9.15184
Spine1 -2.48075 -4.37625 9.84103
HEad 13.9292 -10.7819 19.5098
LeftShoulder1 9.93923e-017 -0 1.22299e-017
LeftArm -68.6466 -59.2624 55.8682
LeftForeArm -14.1139 3.08366 9.70909
LeftHand -0.133624 3.33883 17.2392
RightShoulder 1.98785e-016 -4.96962e-017 1.55301e-017
RightArm -43.0444 56.1742 -33.5748
RightForeArm -3.60091 -0.778775 -9.6339
RightHand 4.076 -18.1274 -22.0115
LeftUpLeg 8.86717 0.247394 1.0693
LeftLeg 9.81598 -1.44599 4.11161
LeftFoot -10.6504 0.042705 -3.06541
LeftToes 1.53707e-010 -1.11459e-010 1.58109e-011
156
root 16.9066 39.4982 3.30332 -49.4399 86.6505 -43.1672
RightUpLeg 12.3256 0.426298 0.612723
RightLeg 1.72796 8.51305 -1.16641
RightFoot -6.25034 -0.408184 6.81578
RightToes 4.07452e-010 -1.59028e-015 9.93923e-017
Spine -12.212 -3.8399 -8.95113
Spine1 -2.09876 -4.42694 9.72849
HEad 13.7267 -10.9806 19.3527
LeftShoulder1 9.93923e-017 -0 1.22299e-017
LeftArm -64.2954 -57.08 51.6886
LeftForeArm -17.3722 3.04519 9.61315
LeftHand -0.0394032 3.56731 16.4703
RightShoulder 1.98785e-016 -4.96962e-017 1.55301e-017
RightArm -40.3071 53.7916 -31.8715
RightForeArm -5.3348 -0.665696 -9.34356
RightHand 3.83206 -17.9311 -20.3455
LeftUpLeg 8.8084 0.234113 1.02764
LeftLeg 9.94993 -1.3331 4.08228
LeftFoot -10.7584 0.0369134 -2.95002
LeftToes 1.53707e-010 -1.11459e-010 1.58109e-011
